<svg xmlns="http://www.w3.org/2000/svg" width="1200" height="630" viewBox="0 0 1200 630">
	<defs>
		<!-- Light Background Radial Glow -->
		<radialGradient id="bg-grad-light-retry" cx="20%" cy="50%" r="90%">
			<stop offset="0%" stop-color="#FFFFFF"/>
			<stop offset="100%" stop-color="#FAFAFA"/>
		</radialGradient>

		<!-- Accent Glow Filter -->
		<filter id="yellow-glow-light-retry" x="-20%" y="-20%" width="140%" height="140%">
			<feGaussianBlur stdDeviation="8" result="blur"/>
			<feComposite in="SourceGraphic" in2="blur" operator="over"/>
		</filter>

		<!-- Linear Grid -->
		<pattern id="grid-lines-light-retry" width="80" height="80" patternUnits="userSpaceOnUse">
			<path d="M 80 0 L 0 0 0 80" fill="none" stroke="#E6E6E6" stroke-width="1" opacity="0.6"/>
		</pattern>
	</defs>

	<!-- Background artwork, drawn at its native 1920x1080 and center-cropped to this
	     post's 1200x630 hero frame (nested <svg> clips to its box by default). -->
	<svg x="0" y="-22.5" width="1200" height="675" viewBox="0 0 1920 1080">
		<!-- Base Surface -->
		<rect width="1920" height="1080" fill="url(#bg-grad-light-retry)"/>
		<rect width="1920" height="1080" fill="url(#grid-lines-light-retry)"/>

		<!-- Subtle Light Background Tracks -->
		<g fill="none" stroke-linecap="round" stroke-linejoin="round">
			<path d="M -100 960 L 2020 960" stroke="#F6F6F6" stroke-width="24"/>
			<path d="M -100 1010 L 2020 1010" stroke="#E6E6E6" stroke-width="8"/>
		</g>

		<!-- The failed run: one path through the nodes, broken before the last write -->
		<path d="M 120 820 L 1300 820" fill="none" stroke="#DDDDDD" stroke-width="10" stroke-linecap="round"/>
		<path d="M 1460 820 L 1700 820" fill="none" stroke="#DDDDDD" stroke-width="10" stroke-linecap="round" stroke-dasharray="4 26"/>

		<!-- Reads and the committed write that landed: solid grey -->
		<g fill="#CCCCCC">
			<circle cx="240" cy="820" r="34"/>
			<circle cx="520" cy="820" r="34"/>
			<circle cx="800" cy="820" r="34"/>
			<circle cx="1080" cy="820" r="34"/>
		</g>

		<!-- The break: the write that failed -->
		<g fill="none" stroke="#CCCCCC" stroke-width="7" stroke-linecap="round">
			<path d="M 1350 770 L 1410 870"/>
			<path d="M 1410 770 L 1350 870"/>
		</g>

		<!-- The retry: picks up from what landed and finishes the run -->
		<path d="M 1080 786 L 1080 640 L 1380 640 L 1600 420 L 2020 420" fill="none" stroke="hsl(46, 96%, 50%)" stroke-width="10" stroke-linecap="round" stroke-linejoin="round"/>
		<circle cx="1080" cy="640" r="14" fill="hsl(46, 96%, 50%)" filter="url(#yellow-glow-light-retry)"/>
		<circle cx="1600" cy="420" r="14" fill="hsl(46, 96%, 50%)" filter="url(#yellow-glow-light-retry)"/>
		<circle cx="1800" cy="420" r="18" fill="#FAFAFA" stroke="hsl(46, 96%, 50%)" stroke-width="7"/>

		<!-- Corner Decorative Accent Block -->
		<path d="M 1840 120 L 1880 120 L 1880 160" fill="none" stroke="#CCCCCC" stroke-width="3"/>
	</svg>

	<!-- Post heading, overlaid on the plainer upper-left of the cropped background -->
	<text x="70" y="220" font-family="Arial, sans-serif" font-size="60" font-weight="800" fill="#0D0D0D">Retry,</text>
	<text x="70" y="300" font-family="Arial, sans-serif" font-size="60" font-weight="800" fill="#FAC409">not rerun</text>
</svg>
